<?xml version="1.0" encoding="UTF-8"?>
<!DOCTYPE svg PUBLIC "-//W3C//DTD SVG 1.1//EN" "http://www.w3.org/Graphics/SVG/1.1/DTD/svg11.dtd">
<!-- Creator: CorelDRAW X7 -->
<svg xmlns="http://www.w3.org/2000/svg" xml:space="preserve" width="296.333mm" height="42.3332mm" version="1.1" style="shape-rendering:geometricPrecision; text-rendering:geometricPrecision; image-rendering:optimizeQuality; fill-rule:evenodd; clip-rule:evenodd"
viewBox="0 0 29633 4233"
 xmlns:xlink="http://www.w3.org/1999/xlink">
 <defs>
  <style type="text/css">
   <![CDATA[
    .fil12 {fill:#B4151B}
    .fil11 {fill:#B6171E}
    .fil10 {fill:#C90901}
    .fil9 {fill:#D21C22}
    .fil3 {fill:#DC1D23}
    .fil13 {fill:#E63320}
    .fil8 {fill:#EC2101}
    .fil6 {fill:#EF5240}
    .fil0 {fill:#F16850}
    .fil15 {fill:#FD684D}
    .fil1 {fill:#FD694F}
    .fil16 {fill:#FD745C}
    .fil2 {fill:#FF3413}
    .fil14 {fill:#FF4527}
    .fil7 {fill:#FF482C}
    .fil5 {fill:#FF8B79}
    .fil4 {fill:#FF9281}
    .fil17 {fill:#DD1100;fill-rule:nonzero}
    .fil18 {fill:#FF7D00;fill-rule:nonzero}
   ]]>
  </style>
 </defs>
 <g id="Слой_x0020_1">
  <metadata id="CorelCorpID_0Corel-Layer"/>
  <polygon class="fil0" points="5191,2583 4553,2720 4618,3358 4019,3100 3690,3653 3358,3100 2762,3355 2827,2717 2189,2583 2623,2104 2189,1625 2827,1489 2762,851 3360,1109 3690,555 4019,1109 4617,851 4552,1489 5190,1626 4756,2104 "/>
  <g>
   <path class="fil1" d="M3690 1522l-330 -413 -598 -258 355 472 571 199 2 0zm0 0l0 0 0 0z"/>
  </g>
  <g>
   <path class="fil2" d="M2827 1489l-638 136 434 479 512 -186 -308 -429 0 0zm0 0l0 0 0 0z"/>
  </g>
  <g>
   <path class="fil3" d="M3118 1323l-354 -472 65 638 307 429 -16 -595 -2 0zm0 0l0 0 0 0z"/>
  </g>
  <g>
   <path class="fil4" d="M4019 1109l-329 -554 -330 554 329 413 330 -413 0 0zm0 0l0 0 0 0z"/>
  </g>
  <polygon class="fil5" points="4756,2104 5191,1626 4553,1489 4244,1918 "/>
  <polygon class="fil1" points="4244,1918 4552,1489 4617,851 4263,1323 "/>
  <g>
   <path class="fil6" d="M4261 1323l356 -472 -598 258 -329 413 571 -200 0 1zm0 0l0 0 0 0z"/>
  </g>
  <g>
   <path class="fil7" d="M4614 2390l577 193 -435 -479 -512 -187 370 472 0 1zm0 0l0 0 0 0z"/>
  </g>
  <g>
   <path class="fil8" d="M3135 1918l-512 186 -434 478 576 -193 370 -471 0 0zm0 0l0 0 0 0z"/>
  </g>
  <polygon class="fil9" points="3690,3049 3690,3651 4019,3098 4032,2558 "/>
  <polygon class="fil10" points="4614,2390 4032,2558 4551,2720 5189,2583 "/>
  <g>
   <path class="fil8" d="M4019 3100l598 255 -65 -638 -520 -159 -14 542 1 0zm0 0l0 0 0 0z"/>
  </g>
  <g>
   <path class="fil11" d="M2765 2390l-576 192 638 135 520 -161 -582 -167 0 1zm0 0l0 0 0 0z"/>
  </g>
  <g>
   <path class="fil12" d="M3347 2558l11 542 330 553 0 -602 -341 -493 0 0zm0 0l0 0 0 0z"/>
  </g>
  <polygon class="fil9" points="2827,2717 2762,3355 3358,3100 3347,2558 "/>
  <polygon class="fil13" points="4244,1918 4261,1323 3690,1522 3690,2101 "/>
  <polygon class="fil14" points="3690,1522 3118,1323 3135,1918 3690,2101 "/>
  <polygon class="fil4" points="3347,2558 3689,3049 4032,2558 3690,2101 "/>
  <polygon class="fil15" points="3690,2101 4032,2558 4613,2389 4244,1918 "/>
  <g>
   <path class="fil16" d="M3135 1918l-370 472 582 168 342 -457 -554 -183 0 0zm0 0l0 0 0 0z"/>
  </g>
  <path class="fil17" d="M6418 1294l0 1864 667 0c557,0 883,-346 883,-936 0,-588 -326,-928 -883,-928l-667 0zm288 248l352 0c396,0 616,243 616,683 0,441 -220,683 -616,683l-352 0 0 -1366z"/>
  <path id="1" class="fil17" d="M8703 2950c-162,0 -267,-77 -267,-198 0,-124 100,-195 292,-206l341 -23 0 109c0,185 -158,318 -366,318zm-75 222c191,0 366,-95 443,-246l7 0 0 233 266 0 0 -963c0,-278 -220,-458 -562,-458 -316,0 -551,183 -559,431l262 0c25,-122 136,-201 289,-201 188,0 295,89 295,249l0 109 -379 22c-347,22 -537,164 -537,409 0,251 194,415 475,415z"/>
  <path id="2" class="fil17" d="M9625 3159l280 0 0 -810c0,-221 140,-368 353,-368 206,0 317,119 317,332l0 846 280 0 0 -899c0,-323 -190,-519 -500,-519 -218,0 -372,87 -458,252l-5 0 0 -236 -267 0 0 1402z"/>
  <path id="3" class="fil17" d="M11145 3159l280 0 0 -1402 -280 0 0 1402zm140 -1603c90,0 164,-72 164,-161 0,-92 -74,-161 -164,-161 -91,0 -164,69 -164,161 0,89 73,161 164,161z"/>
  <path id="4" class="fil17" d="M12306 1966c205,0 344,145 350,365l-713 0c15,-217 162,-365 363,-365zm348 782c-38,122 -166,199 -329,199 -231,0 -384,-159 -384,-401l0 -17 995 0 0 -98c0,-427 -243,-693 -628,-693 -394,0 -650,285 -650,726 0,437 253,711 661,711 316,0 563,-176 603,-427l-268 0z"/>
  <polygon id="5" class="fil17" points="13173,3159 13453,3159 13453,1211 13173,1211 "/>
  <polygon id="6" class="fil17" points="14034,1976 14219,1294 13947,1294 13795,1976 "/>
  <path id="7" class="fil17" d="M14260 2157c0,193 125,322 379,384l251 61c148,38 203,84 203,173 0,114 -109,185 -284,185 -179,0 -288,-73 -310,-207l-277 0c21,253 244,422 572,422 341,0 577,-173 577,-423 0,-206 -104,-308 -387,-376l-233 -55c-149,-37 -219,-94 -219,-179 0,-111 107,-185 266,-185 161,0 269,77 280,201l262 0c-6,-243 -227,-417 -535,-417 -324,0 -545,170 -545,416z"/>
  <polygon id="8" class="fil18" points="17514,1294 17179,1294 16577,2766 16566,2766 15963,1294 15628,1294 15628,3159 15892,3159 15892,1786 15901,1786 16464,3144 16679,3144 17241,1786 17250,1786 17250,3159 17514,3159 "/>
  <path id="9" class="fil18" d="M18317 2950c-161,0 -266,-77 -266,-198 0,-124 100,-195 291,-206l341 -23 0 109c0,185 -158,318 -366,318zm-75 222c192,0 366,-95 444,-246l7 0 0 233 266 0 0 -963c0,-278 -220,-458 -563,-458 -315,0 -550,183 -558,431l262 0c25,-122 136,-201 288,-201 188,0 295,89 295,249l0 109 -378 22c-347,22 -537,164 -537,409 0,251 194,415 474,415z"/>
  <path id="10" class="fil18" d="M19324 1442l0 315 -193 0 0 219 193 0 0 813c0,271 108,378 388,378 60,0 126,-7 157,-14l0 -220c-18,3 -66,6 -96,6 -117,0 -171,-57 -171,-178l0 -785 268 0 0 -219 -268 0 0 -315 -278 0z"/>
  <path id="11" class="fil18" d="M20121 3159l280 0 0 -803c0,-225 146,-375 364,-375 206,0 330,127 330,336l0 842 277 0 0 -896c0,-317 -202,-522 -510,-522 -215,0 -373,87 -457,252l-6 0 0 -782 -278 0 0 1948z"/>
  <polygon id="12" class="fil18" points="22837,2908 21969,2908 21969,1294 21681,1294 21681,3158 22837,3158 "/>
  <path id="13" class="fil18" d="M23546 2950c-162,0 -266,-77 -266,-198 0,-124 99,-195 291,-206l341 -23 0 109c0,185 -158,318 -366,318zm-75 222c191,0 366,-95 444,-246l6 0 0 233 266 0 0 -963c0,-278 -219,-458 -562,-458 -316,0 -551,183 -559,431l263 0c24,-122 135,-201 288,-201 188,0 295,89 295,249l0 109 -379 22c-346,22 -536,164 -536,409 0,251 194,415 474,415z"/>
  <path id="14" class="fil18" d="M25208 3172c357,0 588,-280 588,-714 0,-434 -231,-715 -585,-715 -199,0 -359,90 -444,247l-5 0 0 -778 -281 0 0 1947 270 0 0 -237 7 0c86,159 246,250 450,250zm-71 -1190c226,0 373,186 373,476 0,290 -147,476 -373,476 -226,0 -377,-192 -377,-476 0,-283 151,-476 377,-476z"/>
  <path id="15" class="fil18" d="M26581 3289c368,0 654,-284 654,-655 0,-373 -286,-655 -654,-655 -366,0 -655,282 -655,655 0,371 289,655 655,655zm0 -123c-297,0 -532,-230 -532,-532 0,-304 235,-532 532,-532 298,0 530,228 530,532 0,302 -232,532 -530,532zm309 -640c-19,-131 -126,-234 -296,-234 -196,0 -322,131 -322,341 0,212 126,343 323,343 169,0 276,-95 295,-230l-129 0c-18,75 -81,117 -167,117 -113,0 -187,-86 -187,-230 0,-143 73,-228 187,-228 92,0 150,53 167,121l129 0z"/>
 </g>
</svg>
